<svg width="1006" height="438" viewBox="0 0 1006 438" fill="none" xmlns="http://www.w3.org/2000/svg">
<path d="M68.5 344L2 437.5H1005.5C971.167 398 896 317.5 870 311.5C844 305.5 746.833 244.333 701.5 214.5C688.5 222.5 683.295 222.122 675 212C669.556 205.357 632.667 160.833 614 140C611.167 136.833 599.5 133.5 580 122.5C560.5 111.5 540.833 86.5 534 72.5C520.167 54.1667 491.5 15.6 487.5 7.99996C483.5 0.399956 475.167 2.16662 471.5 3.99996C451 18.8333 407.9 49.7 399.5 54.5C391.1 59.3 379 61.1666 374 61.5C343.5 86.3333 276.4 140.5 252 158.5C227.6 176.5 194.833 187.667 181.5 191L68.5 344Z" fill="#4579CC"/>
<path d="M449.5 127L483 6.5C468.833 13.3333 436 30.6 418 45C400 59.4 380.5 63.6667 373 64C348.333 83 292.7 126.6 267.5 149C242.3 171.4 197.833 184.5 180 189L0.5 437.5H373L418 341L509 254.5L449.5 127Z" fill="#293F88"/>
<path d="M486.5 175.5C472.1 186.3 454.167 176.667 447 170.5L428.5 161.5L398.5 144.5L354.5 132L324 102L374 61C375.833 61 393.401 57.3771 398.5 54C437 28.5 445.333 19.6667 471.5 3C477.5 -0.821696 479.345 -1.61306 486.5 4.99998C498.166 15.7821 522.681 55.2964 535.5 75C562.5 116.5 583.5 125.5 602 132C615.917 136.89 635.167 163.5 641 170.5L663 195.5L684.5 220.5C697 220.5 695.377 208.864 707 217C722 227.5 785 270 815 285L879 315.5C879 315.5 908.5 327 900 337.5C891.5 348 862.4 313.7 854 312.5C843.683 311.026 824.678 300.381 812.161 293.37L811.5 293C799 286 762.5 296.5 747 291C731.5 285.5 735 276 709 276C688.2 276 680 272 678.5 270C673.5 258.667 662.2 234.1 657 226.5C650.5 217 630.5 214 634.5 236C637.7 253.6 614.167 247 602 241.5L513.5 152C510.5 155.333 500.9 164.7 486.5 175.5Z" fill="#FEFFFF"/>
</svg>
