<svg width="23" height="25" viewBox="0 0 23 25" fill="none" xmlns="http://www.w3.org/2000/svg">
<path d="M1.90625 19.7651L0.414062 24.9427H22.9316C22.1612 22.7554 20.4745 18.2977 19.8911 17.9654C19.3077 17.6332 17.1274 14.2461 16.1101 12.5941C15.8184 13.0371 15.7016 13.0161 15.5155 12.4556C15.3933 12.0878 14.5656 9.62226 14.1467 8.46862C14.0831 8.29326 13.8214 8.10868 13.3838 7.49955C12.9462 6.89043 12.5049 5.50605 12.3516 4.7308C12.0412 3.71559 11.3979 1.57996 11.3082 1.15911C11.2184 0.738261 11.0314 0.83609 10.9492 0.937611C10.4892 1.75901 9.52204 3.46825 9.33356 3.73405C9.14507 3.99985 8.87356 4.10322 8.76136 4.12167C8.07697 5.49682 6.57132 8.4963 6.02381 9.49305C5.4763 10.4898 4.74105 11.1082 4.44186 11.2927L1.90625 19.7651Z" fill="#4579CC"/>
<path d="M10.4034 7.74862L11.1534 1.07617C10.8362 1.45455 10.1012 2.41066 9.69819 3.20803C9.29522 4.00541 8.85867 4.24166 8.69077 4.26012C8.13855 5.31221 6.89308 7.72647 6.32893 8.96683C5.76477 10.2072 4.76929 10.9326 4.37005 11.1818L0.351562 24.942H8.69077L9.69819 19.5985L11.7354 14.8087L10.4034 7.74862Z" fill="#293F88"/>
<path d="M11.2678 10.4274C10.9434 11.0241 10.5394 10.4919 10.378 10.1512L9.96123 9.65399L9.28543 8.71481L8.29425 8.02424L7.60718 6.36686L8.73352 4.10177C8.77482 4.10177 9.17057 3.90162 9.28543 3.71505C10.1527 2.30628 10.3404 1.81827 10.9299 0.897504C11.0651 0.686371 11.1066 0.642652 11.2678 1.008C11.5306 1.60366 12.0828 3.78667 12.3716 4.87522C12.9798 7.16792 13.4529 7.66514 13.8696 8.02424C14.1832 8.29438 14.6168 9.76448 14.7482 10.1512L15.2438 11.5324L15.7281 12.9135C16.0097 12.9135 15.9731 12.2707 16.235 12.7201C16.5729 13.3002 17.9921 15.6482 18.6679 16.4769L20.1096 18.1619C20.1096 18.1619 20.7741 18.7972 20.5826 19.3773C20.3912 19.9574 19.7356 18.0624 19.5464 17.9961C19.314 17.9147 18.8859 17.3266 18.6039 16.9393L18.589 16.9188C18.3074 16.5321 17.4852 17.1122 17.136 16.8083C16.7869 16.5045 16.8657 15.9797 16.28 15.9797C15.8115 15.9797 15.6267 15.7587 15.5929 15.6482C15.4803 15.0221 15.2258 13.6649 15.1086 13.245C14.9622 12.7201 14.5117 12.5544 14.6018 13.7698C14.6739 14.7421 14.1437 14.3775 13.8696 14.0737L11.876 9.12916C11.8084 9.31331 11.5922 9.83078 11.2678 10.4274Z" fill="#FEFFFF"/>
</svg>
