<svg width="1004" height="436" viewBox="0 0 1004 436" fill="none" xmlns="http://www.w3.org/2000/svg">
<path d="M66.5331 341.759L0 435.306H1004C969.65 395.786 894.445 315.246 868.432 309.243C842.42 303.24 745.204 242.043 699.849 212.195C686.842 220.199 681.635 219.821 673.335 209.694C667.889 203.048 630.981 158.501 612.305 137.658C609.47 134.49 597.798 131.155 578.288 120.149C558.778 109.144 539.102 84.1311 532.265 70.1242C518.425 51.7817 489.744 13.1958 485.742 5.59197C481.74 -2.01181 473.402 -0.244266 469.734 1.58998C449.224 16.4307 406.102 47.3128 397.698 52.1151C389.294 56.9175 377.188 58.7851 372.185 59.1186C341.67 83.9643 274.537 138.158 250.125 156.167C225.712 174.176 192.929 185.348 179.589 188.683L66.5331 341.759Z" fill="#4579CC"/>
</svg>
