<svg width="578" height="340" viewBox="0 0 578 340" fill="none" xmlns="http://www.w3.org/2000/svg">
<path d="M162.63 175.567C148.218 186.375 130.271 176.734 123.098 170.563L104.584 161.555L74.5596 144.542L30.5244 132.032L0 102.008L50.04 60.975C51.8748 60.975 69.4567 57.3492 74.5596 53.9694C113.09 28.449 121.43 19.6086 147.618 2.92861C153.623 -0.896143 155.469 -1.68813 162.63 4.93019C174.305 15.7209 198.84 55.2669 211.669 74.9862C238.691 116.519 259.708 125.527 278.222 132.032C292.151 136.926 311.416 163.557 317.254 170.563L339.271 195.583L360.788 220.603C373.298 220.603 371.674 208.957 383.306 217.1C398.318 227.608 461.369 270.142 491.393 285.154L555.444 315.679C555.444 315.679 584.967 327.188 576.461 337.696C567.954 348.205 538.831 313.877 530.424 312.676C520.099 311.201 501.079 300.548 488.551 293.531L487.89 293.161C475.38 286.155 438.851 296.663 423.338 291.159C407.826 285.655 411.329 276.147 385.308 276.147C364.491 276.147 356.285 272.144 354.784 270.142C349.78 258.8 338.471 234.213 333.266 226.607C326.761 217.1 306.745 214.097 310.748 236.115C313.951 253.729 290.399 247.124 278.222 241.619L189.652 152.048C186.649 155.384 177.041 164.758 162.63 175.567Z" fill="#FEFFFF"/>
</svg>
