<svg width="16" height="16" viewBox="0 0 16 16" fill="none" xmlns="http://www.w3.org/2000/svg">
<g clip-path="url(#clip0_120_2028)">
<path d="M2.89395 0.65625C1.89395 0.65625 0.892695 1.40625 0.892695 2.90625L2.89395 6.90625L4.89395 2.90625C4.89395 1.40625 3.89395 0.65625 2.89395 0.65625ZM11.7158 1.875C11.5002 1.88406 11.2908 1.925 11.1158 1.9625L11.2346 2.5125C11.4096 2.47344 11.5908 2.44875 11.7439 2.4375L11.7158 1.875ZM2.89395 1.90625C3.44707 1.90625 3.89395 2.35406 3.89395 2.90625C3.89395 3.45938 3.44707 3.90625 2.89395 3.90625C2.34176 3.90625 1.89395 3.45938 1.89395 2.90625C1.89395 2.35406 2.34176 1.90625 2.89395 1.90625ZM12.3377 1.9125L12.2439 2.46563C12.3971 2.49781 12.5502 2.53813 12.6846 2.61875L12.9564 2.125C12.7658 2.02344 12.5533 1.93219 12.3377 1.9125ZM10.5408 2.12188C10.3502 2.19625 10.1596 2.26281 9.99707 2.32812L10.2189 2.84375C10.3908 2.77063 10.5721 2.70688 10.7252 2.65313L10.5408 2.12188ZM13.4689 2.54063L13.0408 2.90625C13.1533 3.035 13.2408 3.19375 13.3096 3.32188L13.8127 3.06875C13.7064 2.86406 13.6127 2.70906 13.4689 2.54063ZM9.4752 2.56875C9.28457 2.66594 9.12832 2.7525 8.95957 2.8375L9.23457 3.33125C9.39707 3.2375 9.5752 3.14688 9.71895 3.075L9.4752 2.56875ZM8.46582 3.12812C8.3002 3.225 8.1377 3.32187 7.97832 3.42812L8.28457 3.89687C8.4377 3.79687 8.59707 3.70312 8.75332 3.60938L8.46582 3.12812ZM14.0064 3.6875C13.8221 3.71875 13.6346 3.74063 13.4502 3.7625C13.4627 3.91875 13.4533 4.0875 13.4221 4.21875L13.9689 4.34688C14.0002 4.12188 14.0283 3.89062 14.0064 3.6875ZM7.50332 3.74062C7.34707 3.84687 7.19395 3.95625 7.0377 4.0625L7.3627 4.52187C7.5127 4.4125 7.66582 4.30938 7.81895 4.20312L7.50332 3.74062ZM6.57832 4.4C6.42207 4.5125 6.25957 4.6375 6.1252 4.74062L6.46582 5.1875C6.6377 5.0625 6.75645 4.96875 6.9127 4.85313L6.57832 4.4ZM13.2346 4.65C13.1408 4.79375 13.0314 4.9375 12.9221 5.04688L13.3314 5.4375C13.4658 5.27813 13.6096 5.11562 13.7096 4.95312L13.2346 4.65ZM5.67832 5.09062C5.5252 5.20937 5.37207 5.33125 5.2377 5.44375L5.59395 5.87813C5.74082 5.75625 5.89082 5.63125 6.02832 5.53125L5.67832 5.09062ZM12.5346 5.40625C12.3908 5.52188 12.2408 5.63438 12.1033 5.72813L12.4252 6.19063C12.5908 6.07813 12.7533 5.95625 12.8939 5.84375L12.5346 5.40625ZM4.80332 5.80937C4.65645 5.92812 4.51582 6.05313 4.37207 6.175L4.7377 6.60313C4.87832 6.48125 5.01895 6.35937 5.1627 6.24062L4.80332 5.80937ZM11.6439 6.02812C11.4846 6.12187 11.3189 6.21875 11.1689 6.3L11.4377 6.79688C11.6064 6.69375 11.7971 6.60313 11.9377 6.50938L11.6439 6.02812ZM3.94395 6.54688C3.80332 6.67188 3.66582 6.79688 3.5252 6.925L3.90332 7.34375C4.04082 7.21875 4.18145 7.09375 4.31895 6.96875L3.94395 6.54688ZM10.6783 6.55937C10.5127 6.64062 10.3471 6.725 10.1814 6.80625L10.4221 7.3125C10.6158 7.21875 10.7596 7.14062 10.9346 7.05937L10.6783 6.55937ZM9.67832 7.04063C9.50645 7.11875 9.34082 7.19375 9.16582 7.26562L9.39395 7.78125C9.56582 7.70625 9.7377 7.62813 9.90957 7.55L9.67832 7.04063ZM3.1127 7.3125C2.95332 7.45312 2.84238 7.5625 2.69707 7.70312L3.09395 8.10938C3.24082 7.96875 3.35957 7.84688 3.49707 7.72813L3.1127 7.3125ZM8.65332 7.49375C8.48145 7.56563 8.30957 7.64063 8.1377 7.7125L8.35645 8.23438C8.53145 8.1625 8.70332 8.0875 8.8752 8.0125L8.65332 7.49375ZM7.61895 7.93125C7.44707 8.00625 7.2752 8.08125 7.1002 8.15L7.31895 8.67188C7.49082 8.6 7.66582 8.525 7.8377 8.45312L7.61895 7.93125ZM13.3939 8.15625C12.3939 8.15625 11.3939 8.90625 11.3939 10.4062L13.3939 14.4062L15.3939 10.4062C15.3939 8.90625 14.3939 8.15625 13.3939 8.15625ZM6.58145 8.36875C6.40332 8.45 6.21582 8.525 6.0627 8.59062L6.28457 9.10938C6.46895 9.03125 6.64395 8.95625 6.8002 8.8875L6.58145 8.36875ZM5.54395 8.8125C5.3752 8.89062 5.17832 8.97812 5.02832 9.04688L5.25957 9.55937C5.44395 9.47812 5.60645 9.39688 5.76895 9.32812L5.54395 8.8125ZM4.5127 9.28125C4.3377 9.36563 4.15645 9.45312 4.0002 9.53125L4.25332 10.0344C4.42207 9.94688 4.59707 9.86562 4.7502 9.79062L4.5127 9.28125ZM13.3939 9.40625C13.9471 9.40625 14.3939 9.85312 14.3939 10.4062C14.3939 10.9594 13.9471 11.4062 13.3939 11.4062C12.8408 11.4062 12.3939 10.9594 12.3939 10.4062C12.3939 9.85312 12.8408 9.40625 13.3939 9.40625ZM3.49395 9.79062C3.32832 9.88125 3.1627 9.975 2.99395 10.0719L3.2752 10.5594C3.43457 10.4656 3.59707 10.3781 3.75957 10.2906L3.49395 9.79062ZM2.50332 10.375C2.32801 10.475 2.15863 10.6094 2.0127 10.7063L2.35332 11.1562C2.50863 11.0438 2.67582 10.9281 2.80957 10.8469L2.50332 10.375ZM1.56895 11.0813C1.41895 11.2188 1.27113 11.3781 1.15645 11.5125L1.58457 11.8781C1.70488 11.7313 1.80957 11.6219 1.9502 11.4969L1.56895 11.0813ZM8.3752 11.1219L8.4252 11.6812C8.5877 11.6531 8.7502 11.6719 8.9127 11.6969L9.00957 11.1438C8.80332 11.1125 8.58457 11.0906 8.3752 11.1219ZM7.2127 11.4344L7.4252 11.9563C7.5877 11.8844 7.75645 11.8281 7.92832 11.775C7.86895 11.5969 7.8252 11.4156 7.77832 11.2344C7.58145 11.2906 7.38457 11.3656 7.2127 11.4344ZM9.63457 11.4062L9.31582 11.8687C9.44707 11.9656 9.5752 12.0687 9.67832 12.1969L10.1033 11.8281C9.94395 11.6656 9.82207 11.5125 9.63457 11.4062ZM6.68145 11.6875C6.50957 11.775 6.34395 11.875 6.17832 11.9719L6.4627 12.4563C6.6252 12.3688 6.78457 12.2656 6.94395 12.1812L6.68145 11.6875ZM0.813008 12.0312C0.718633 12.2344 0.64207 12.4531 0.606445 12.6469L1.15957 12.7437C1.19332 12.5656 1.24176 12.4375 1.3127 12.2844C1.14113 12.2094 0.977383 12.1187 0.813008 12.0312ZM5.69082 12.275C5.53145 12.3781 5.3752 12.4812 5.21895 12.5875L5.53145 13.0562C5.6877 12.9531 5.84082 12.8469 5.99707 12.7437L5.69082 12.275ZM10.4627 12.3125L9.99082 12.6187C10.0908 12.7687 10.1877 12.925 10.2783 13.0844L10.7658 12.8031C10.6564 12.6281 10.5783 12.4719 10.4627 12.3125ZM4.75332 12.9062C4.59707 13.0094 4.44082 13.1094 4.2877 13.2188L4.6002 13.6875C4.7502 13.5781 4.90957 13.475 5.06895 13.3687L4.75332 12.9062ZM1.16582 13.2031C0.984883 13.2406 0.802383 13.2719 0.620508 13.3062C0.65332 13.525 0.741133 13.7375 0.820508 13.9062L1.32832 13.6625C1.26051 13.5063 1.19613 13.3438 1.16582 13.2031ZM11.0439 13.2906L10.5564 13.5719C10.6533 13.7406 10.7658 13.9219 10.8564 14.0656L11.3283 13.7625C11.2221 13.5969 11.1314 13.4406 11.0439 13.2906ZM3.8252 13.525C3.66895 13.6219 3.51582 13.7156 3.35332 13.8062L3.63145 14.2969C3.79707 14.2 3.9627 14.1031 4.12207 14L3.8252 13.525ZM1.59707 14.0344L1.2127 14.4469C1.38645 14.6125 1.60082 14.7219 1.83457 14.7719L1.95957 14.225C1.82082 14.1969 1.69113 14.1281 1.59707 14.0344ZM2.87832 14.0437C2.72176 14.1156 2.55926 14.1719 2.39082 14.2063L2.51895 14.7563C2.71957 14.7156 2.90832 14.6406 3.09707 14.5625L2.87832 14.0437ZM11.6377 14.1938L11.2033 14.5469C11.3377 14.7125 11.5033 14.8719 11.6471 14.9844L11.9939 14.5406C11.8564 14.4344 11.7377 14.3063 11.6377 14.1938ZM12.3908 14.7406L12.2502 15.2875C12.4971 15.3375 12.6814 15.3531 12.9127 15.3281L12.8439 14.7688C12.6908 14.7938 12.5408 14.7781 12.3908 14.7406Z" fill="#293F88"/>
</g>
<defs>
<clipPath id="clip0_120_2028">
<rect width="16" height="16" fill="white"/>
</clipPath>
</defs>
</svg>
