<svg width="16" height="16" viewBox="0 0 16 16" fill="none" xmlns="http://www.w3.org/2000/svg">
<path d="M13.4999 3C14.328 3 14.9999 2.32812 14.9999 1.5C14.9999 0.671875 14.328 0 13.4999 0C12.6717 0 11.9999 0.671875 11.9999 1.5C11.9999 2.32812 12.6717 3 13.4999 3ZM15.7811 14.1281C15.4874 13.8344 15.0124 13.8344 14.7217 14.1281C14.3436 14.5063 13.7686 14.6094 13.3124 14.4L9.06861 12.2063L10.6061 9.9C11.003 9.30625 10.9249 8.50938 10.4186 8.00625L9.15611 6.74062L5.81236 5.08125C5.72173 5.70313 5.91861 6.33125 6.36548 6.78125L8.71236 9.13125L7.27798 11.2812L1.09361 8.08438C0.727984 7.89688 0.274859 8.0375 0.0842344 8.40625C-0.106391 8.775 0.0373594 9.22812 0.406109 9.41562L12.653 15.7437C13.0249 15.9156 13.4186 15.9969 13.8124 15.9969C14.5374 15.9969 15.2499 15.7156 15.7811 15.1844C16.0717 14.8937 16.0717 14.4188 15.7811 14.1281ZM3.74986 2.8625L3.39048 3.56562C3.84048 3.79375 4.36548 3.71875 4.72798 3.41563L6.20298 4.14687C6.19986 4.15 6.19986 4.15312 6.19673 4.15625L9.77486 5.93125L10.7874 5.525L10.9874 6.12187C11.1124 6.5 11.3811 6.80938 11.7374 6.9875L13.553 7.89375C14.0499 8.14063 14.6467 7.94063 14.8936 7.44688C15.1405 6.95313 14.9405 6.35312 14.4467 6.10625L12.8186 5.29063L12.2842 3.69062C12.0311 2.93437 11.0061 1.92188 9.64361 2.46563L7.10611 3.48125L5.15298 2.5125C5.16236 2.05938 4.92798 1.61875 4.49986 1.4L4.15298 2.07812H4.14673L3.07173 1.85938C3.01548 1.84687 2.95611 1.86563 2.91548 1.9125C2.85611 1.98125 2.86236 2.08437 2.93111 2.14375L3.74986 2.8625Z" fill="#293F88"/>
</svg>
